<?xml version="1.0" encoding="UTF-8" standalone="no"?>
<!DOCTYPE svg PUBLIC "-//W3C//DTD SVG 1.1//EN"
 "http://www.w3.org/Graphics/SVG/1.1/DTD/svg11.dtd">
<!-- Generated by graphviz version 2.43.0 (0)
 -->
<!-- Title: AbsoluteZeroReasoner Pages: 1 -->
<svg width="732pt" height="1340pt"
 viewBox="0.00 0.00 732.38 1340.00" xmlns="http://www.w3.org/2000/svg" xmlns:xlink="http://www.w3.org/1999/xlink">
<g id="graph0" class="graph" transform="scale(1 1) rotate(0) translate(4 1336)">
<title>AbsoluteZeroReasoner</title>
<polygon fill="white" stroke="transparent" points="-4,4 -4,-1336 728.38,-1336 728.38,4 -4,4"/>
<!-- root -->
<g id="node1" class="node">
<title>root</title>
<ellipse fill="lightblue" stroke="black" cx="122.19" cy="-693" rx="122.38" ry="18"/>
<text text-anchor="middle" x="122.19" y="-689.3" font-family="Times,serif" font-size="14.00">Absolute Zero Reasoner</text>
</g>
<!-- 1 -->
<g id="node2" class="node">
<title>1</title>
<path fill="lightgrey" stroke="black" d="M422.38,-1251C422.38,-1251 303.38,-1251 303.38,-1251 297.38,-1251 291.38,-1245 291.38,-1239 291.38,-1239 291.38,-1227 291.38,-1227 291.38,-1221 297.38,-1215 303.38,-1215 303.38,-1215 422.38,-1215 422.38,-1215 428.38,-1215 434.38,-1221 434.38,-1227 434.38,-1227 434.38,-1239 434.38,-1239 434.38,-1245 428.38,-1251 422.38,-1251"/>
<text text-anchor="middle" x="362.88" y="-1229.3" font-family="Times,serif" font-size="14.00">Motivation &amp; Ziel</text>
</g>
<!-- root&#45;&gt;1 -->
<g id="edge1" class="edge">
<title>root&#45;&gt;1</title>
<path fill="none" stroke="black" d="M129.01,-711.24C147.76,-769.19 209.54,-953.81 280.38,-1098 299.58,-1137.07 326.37,-1179.7 343.92,-1206.38"/>
<polygon fill="black" stroke="black" points="341.05,-1208.39 349.49,-1214.79 346.88,-1204.52 341.05,-1208.39"/>
</g>
<!-- 2 -->
<g id="node3" class="node">
<title>2</title>
<path fill="lightgrey" stroke="black" d="M399.88,-1089C399.88,-1089 325.88,-1089 325.88,-1089 319.88,-1089 313.88,-1083 313.88,-1077 313.88,-1077 313.88,-1065 313.88,-1065 313.88,-1059 319.88,-1053 325.88,-1053 325.88,-1053 399.88,-1053 399.88,-1053 405.88,-1053 411.88,-1059 411.88,-1065 411.88,-1065 411.88,-1077 411.88,-1077 411.88,-1083 405.88,-1089 399.88,-1089"/>
<text text-anchor="middle" x="362.88" y="-1067.3" font-family="Times,serif" font-size="14.00">Architektur</text>
</g>
<!-- root&#45;&gt;2 -->
<g id="edge2" class="edge">
<title>root&#45;&gt;2</title>
<path fill="none" stroke="black" d="M134.54,-710.98C173.1,-772.04 299.19,-971.73 345.03,-1044.32"/>
<polygon fill="black" stroke="black" points="342.16,-1046.33 350.46,-1052.91 348.08,-1042.59 342.16,-1046.33"/>
</g>
<!-- 3 -->
<g id="node4" class="node">
<title>3</title>
<path fill="lightgrey" stroke="black" d="M432.88,-900C432.88,-900 292.88,-900 292.88,-900 286.88,-900 280.88,-894 280.88,-888 280.88,-888 280.88,-876 280.88,-876 280.88,-870 286.88,-864 292.88,-864 292.88,-864 432.88,-864 432.88,-864 438.88,-864 444.88,-870 444.88,-876 444.88,-876 444.88,-888 444.88,-888 444.88,-894 438.88,-900 432.88,-900"/>
<text text-anchor="middle" x="362.88" y="-878.3" font-family="Times,serif" font-size="14.00">Pipeline / Datenfluss</text>
</g>
<!-- root&#45;&gt;3 -->
<g id="edge3" class="edge">
<title>root&#45;&gt;3</title>
<path fill="none" stroke="black" d="M145.64,-710.78C188.54,-744.75 282.19,-818.9 330.96,-857.52"/>
<polygon fill="black" stroke="black" points="328.95,-860.39 338.96,-863.85 333.29,-854.9 328.95,-860.39"/>
</g>
<!-- 4 -->
<g id="node5" class="node">
<title>4</title>
<path fill="lightgrey" stroke="black" d="M399.88,-711C399.88,-711 325.88,-711 325.88,-711 319.88,-711 313.88,-705 313.88,-699 313.88,-699 313.88,-687 313.88,-687 313.88,-681 319.88,-675 325.88,-675 325.88,-675 399.88,-675 399.88,-675 405.88,-675 411.88,-681 411.88,-687 411.88,-687 411.88,-699 411.88,-699 411.88,-705 405.88,-711 399.88,-711"/>
<text text-anchor="middle" x="362.88" y="-689.3" font-family="Times,serif" font-size="14.00">Umsetzung</text>
</g>
<!-- root&#45;&gt;4 -->
<g id="edge4" class="edge">
<title>root&#45;&gt;4</title>
<path fill="none" stroke="black" d="M244.63,-693C265.14,-693 285.56,-693 303.48,-693"/>
<polygon fill="black" stroke="black" points="303.72,-696.5 313.72,-693 303.72,-689.5 303.72,-696.5"/>
</g>
<!-- 5 -->
<g id="node6" class="node">
<title>5</title>
<path fill="lightgrey" stroke="black" d="M392.38,-549C392.38,-549 333.38,-549 333.38,-549 327.38,-549 321.38,-543 321.38,-537 321.38,-537 321.38,-525 321.38,-525 321.38,-519 327.38,-513 333.38,-513 333.38,-513 392.38,-513 392.38,-513 398.38,-513 404.38,-519 404.38,-525 404.38,-525 404.38,-537 404.38,-537 404.38,-543 398.38,-549 392.38,-549"/>
<text text-anchor="middle" x="362.88" y="-527.3" font-family="Times,serif" font-size="14.00">Vergleich</text>
</g>
<!-- root&#45;&gt;5 -->
<g id="edge5" class="edge">
<title>root&#45;&gt;5</title>
<path fill="none" stroke="black" d="M149.19,-675.35C192.27,-646.11 278.51,-587.58 326.9,-554.74"/>
<polygon fill="black" stroke="black" points="328.87,-557.63 335.18,-549.12 324.94,-551.84 328.87,-557.63"/>
</g>
<!-- 6 -->
<g id="node7" class="node">
<title>6</title>
<path fill="lightgrey" stroke="black" d="M433.38,-360C433.38,-360 292.38,-360 292.38,-360 286.38,-360 280.38,-354 280.38,-348 280.38,-348 280.38,-336 280.38,-336 280.38,-330 286.38,-324 292.38,-324 292.38,-324 433.38,-324 433.38,-324 439.38,-324 445.38,-330 445.38,-336 445.38,-336 445.38,-348 445.38,-348 445.38,-354 439.38,-360 433.38,-360"/>
<text text-anchor="middle" x="362.88" y="-338.3" font-family="Times,serif" font-size="14.00">Für Rust interessant</text>
</g>
<!-- root&#45;&gt;6 -->
<g id="edge6" class="edge">
<title>root&#45;&gt;6</title>
<path fill="none" stroke="black" d="M135.69,-674.62C175.16,-616.57 297.3,-436.96 343.72,-368.7"/>
<polygon fill="black" stroke="black" points="346.78,-370.43 349.51,-360.2 340.99,-366.5 346.78,-370.43"/>
</g>
<!-- 7 -->
<g id="node8" class="node">
<title>7</title>
<path fill="lightgrey" stroke="black" d="M410.38,-144C410.38,-144 315.38,-144 315.38,-144 309.38,-144 303.38,-138 303.38,-132 303.38,-132 303.38,-120 303.38,-120 303.38,-114 309.38,-108 315.38,-108 315.38,-108 410.38,-108 410.38,-108 416.38,-108 422.38,-114 422.38,-120 422.38,-120 422.38,-132 422.38,-132 422.38,-138 416.38,-144 410.38,-144"/>
<text text-anchor="middle" x="362.88" y="-122.3" font-family="Times,serif" font-size="14.00">Offene Fragen</text>
</g>
<!-- root&#45;&gt;7 -->
<g id="edge7" class="edge">
<title>root&#45;&gt;7</title>
<path fill="none" stroke="black" d="M130.63,-674.87C153.03,-620.34 221.9,-453.09 280.38,-315 304.71,-257.55 333.76,-190.56 349.77,-153.76"/>
<polygon fill="black" stroke="black" points="353.15,-154.78 353.93,-144.21 346.73,-151.98 353.15,-154.78"/>
</g>
<!-- 1_0 -->
<g id="node9" class="node">
<title>1_0</title>
<polygon fill="none" stroke="black" points="680.88,-1332 518.88,-1332 518.88,-1296 686.88,-1296 686.88,-1326 680.88,-1332"/>
<polyline fill="none" stroke="black" points="680.88,-1332 680.88,-1326 "/>
<polyline fill="none" stroke="black" points="686.88,-1326 680.88,-1326 "/>
<text text-anchor="middle" x="602.88" y="-1310.3" font-family="Arial" font-size="14.00">Warum &#39;Zero&#39; Reasoner?</text>
</g>
<!-- 1&#45;&gt;1_0 -->
<g id="edge8" class="edge">
<title>1&#45;&gt;1_0</title>
<path fill="none" stroke="black" d="M398.06,-1251.03C421.1,-1262.6 452.45,-1277.23 481.38,-1287 490.2,-1289.98 499.49,-1292.72 508.85,-1295.23"/>
<polygon fill="black" stroke="black" points="508.04,-1298.63 518.6,-1297.75 509.79,-1291.86 508.04,-1298.63"/>
</g>
<!-- 1_1 -->
<g id="node10" class="node">
<title>1_1</title>
<polygon fill="none" stroke="black" points="718.38,-1278 481.38,-1278 481.38,-1242 724.38,-1242 724.38,-1272 718.38,-1278"/>
<polyline fill="none" stroke="black" points="718.38,-1278 718.38,-1272 "/>
<polyline fill="none" stroke="black" points="724.38,-1272 718.38,-1272 "/>
<text text-anchor="middle" x="602.88" y="-1256.3" font-family="Arial" font-size="14.00">Grenzen heutiger Reasoning&#45;Ansätze</text>
</g>
<!-- 1&#45;&gt;1_1 -->
<g id="edge9" class="edge">
<title>1&#45;&gt;1_1</title>
<path fill="none" stroke="black" d="M434.64,-1241.03C446.21,-1242.34 458.51,-1243.74 470.99,-1245.15"/>
<polygon fill="black" stroke="black" points="470.69,-1248.64 481.02,-1246.29 471.48,-1241.68 470.69,-1248.64"/>
</g>
<!-- 1_2 -->
<g id="node11" class="node">
<title>1_2</title>
<polygon fill="none" stroke="black" points="690.38,-1224 509.38,-1224 509.38,-1188 696.38,-1188 696.38,-1218 690.38,-1224"/>
<polyline fill="none" stroke="black" points="690.38,-1224 690.38,-1218 "/>
<polyline fill="none" stroke="black" points="696.38,-1218 690.38,-1218 "/>
<text text-anchor="middle" x="602.88" y="-1202.3" font-family="Arial" font-size="14.00">Neuer Paradigmenwechsel?</text>
</g>
<!-- 1&#45;&gt;1_2 -->
<g id="edge10" class="edge">
<title>1&#45;&gt;1_2</title>
<path fill="none" stroke="black" d="M434.64,-1224.97C454.96,-1222.67 477.54,-1220.11 499.36,-1217.63"/>
<polygon fill="black" stroke="black" points="499.78,-1221.1 509.32,-1216.5 498.99,-1214.15 499.78,-1221.1"/>
</g>
<!-- 2_0 -->
<g id="node12" class="node">
<title>2_0</title>
<polygon fill="none" stroke="black" points="642.88,-1170 556.88,-1170 556.88,-1134 648.88,-1134 648.88,-1164 642.88,-1170"/>
<polyline fill="none" stroke="black" points="642.88,-1170 642.88,-1164 "/>
<polyline fill="none" stroke="black" points="648.88,-1164 642.88,-1164 "/>
<text text-anchor="middle" x="602.88" y="-1148.3" font-family="Arial" font-size="14.00">Core Engine</text>
</g>
<!-- 2&#45;&gt;2_0 -->
<g id="edge11" class="edge">
<title>2&#45;&gt;2_0</title>
<path fill="none" stroke="black" d="M398.06,-1089.03C421.1,-1100.6 452.45,-1115.23 481.38,-1125 502.33,-1132.07 525.95,-1137.83 546.7,-1142.18"/>
<polygon fill="black" stroke="black" points="546.13,-1145.64 556.62,-1144.2 547.53,-1138.78 546.13,-1145.64"/>
</g>
<!-- 2_1 -->
<g id="node13" class="node">
<title>2_1</title>
<polygon fill="none" stroke="black" points="638.88,-1116 560.88,-1116 560.88,-1080 644.88,-1080 644.88,-1110 638.88,-1116"/>
<polyline fill="none" stroke="black" points="638.88,-1116 638.88,-1110 "/>
<polyline fill="none" stroke="black" points="644.88,-1110 638.88,-1110 "/>
<text text-anchor="middle" x="602.88" y="-1094.3" font-family="Arial" font-size="14.00">Input Layer</text>
</g>
<!-- 2&#45;&gt;2_1 -->
<g id="edge12" class="edge">
<title>2&#45;&gt;2_1</title>
<path fill="none" stroke="black" d="M412.04,-1076.46C452.24,-1081.02 509.38,-1087.51 550.46,-1092.17"/>
<polygon fill="black" stroke="black" points="550.21,-1095.66 560.54,-1093.31 550.99,-1088.7 550.21,-1095.66"/>
</g>
<!-- 2_2 -->
<g id="node14" class="node">
<title>2_2</title>
<polygon fill="none" stroke="black" points="644.38,-1062 555.38,-1062 555.38,-1026 650.38,-1026 650.38,-1056 644.38,-1062"/>
<polyline fill="none" stroke="black" points="644.38,-1062 644.38,-1056 "/>
<polyline fill="none" stroke="black" points="650.38,-1056 644.38,-1056 "/>
<text text-anchor="middle" x="602.88" y="-1040.3" font-family="Arial" font-size="14.00">Output Layer</text>
</g>
<!-- 2&#45;&gt;2_2 -->
<g id="edge13" class="edge">
<title>2&#45;&gt;2_2</title>
<path fill="none" stroke="black" d="M412.04,-1065.54C450.48,-1061.18 504.43,-1055.05 545,-1050.45"/>
<polygon fill="black" stroke="black" points="545.46,-1053.92 555,-1049.32 544.67,-1046.97 545.46,-1053.92"/>
</g>
<!-- 3_0 -->
<g id="node15" class="node">
<title>3_0</title>
<polygon fill="none" stroke="black" points="686.38,-1008 513.38,-1008 513.38,-972 692.38,-972 692.38,-1002 686.38,-1008"/>
<polyline fill="none" stroke="black" points="686.38,-1008 686.38,-1002 "/>
<polyline fill="none" stroke="black" points="692.38,-1002 686.38,-1002 "/>
<text text-anchor="middle" x="602.88" y="-986.3" font-family="Arial" font-size="14.00">Eingabe → Normalisierung</text>
</g>
<!-- 3&#45;&gt;3_0 -->
<g id="edge14" class="edge">
<title>3&#45;&gt;3_0</title>
<path fill="none" stroke="black" d="M384.89,-900.24C407.32,-918.76 444.6,-946.93 481.38,-963 488.42,-966.08 495.86,-968.82 503.44,-971.27"/>
<polygon fill="black" stroke="black" points="502.51,-974.65 513.09,-974.21 504.55,-967.95 502.51,-974.65"/>
</g>
<!-- 3_1 -->
<g id="node16" class="node">
<title>3_1</title>
<polygon fill="none" stroke="black" points="662.38,-954 537.38,-954 537.38,-918 668.38,-918 668.38,-948 662.38,-954"/>
<polyline fill="none" stroke="black" points="662.38,-954 662.38,-948 "/>
<polyline fill="none" stroke="black" points="668.38,-948 662.38,-948 "/>
<text text-anchor="middle" x="602.88" y="-932.3" font-family="Arial" font-size="14.00">Reasoning&#45;Schritte</text>
</g>
<!-- 3&#45;&gt;3_1 -->
<g id="edge15" class="edge">
<title>3&#45;&gt;3_1</title>
<path fill="none" stroke="black" d="M442.24,-900.07C455.31,-903.06 468.72,-906.13 481.38,-909 496.21,-912.37 512.08,-915.94 527.27,-919.35"/>
<polygon fill="black" stroke="black" points="526.61,-922.79 537.14,-921.56 528.15,-915.96 526.61,-922.79"/>
</g>
<!-- 3_2 -->
<g id="node17" class="node">
<title>3_2</title>
<polygon fill="none" stroke="black" points="678.88,-900 520.88,-900 520.88,-864 684.88,-864 684.88,-894 678.88,-900"/>
<polyline fill="none" stroke="black" points="678.88,-900 678.88,-894 "/>
<polyline fill="none" stroke="black" points="684.88,-894 678.88,-894 "/>
<text text-anchor="middle" x="602.88" y="-878.3" font-family="Arial" font-size="14.00">Beweisbaum / Erklärung</text>
</g>
<!-- 3&#45;&gt;3_2 -->
<g id="edge16" class="edge">
<title>3&#45;&gt;3_2</title>
<path fill="none" stroke="black" d="M445.12,-882C466.16,-882 488.96,-882 510.48,-882"/>
<polygon fill="black" stroke="black" points="510.6,-885.5 520.6,-882 510.6,-878.5 510.6,-885.5"/>
</g>
<!-- 3_3 -->
<g id="node18" class="node">
<title>3_3</title>
<polygon fill="none" stroke="black" points="651.38,-846 548.38,-846 548.38,-810 657.38,-810 657.38,-840 651.38,-846"/>
<polyline fill="none" stroke="black" points="651.38,-846 651.38,-840 "/>
<polyline fill="none" stroke="black" points="657.38,-840 651.38,-840 "/>
<text text-anchor="middle" x="602.88" y="-824.3" font-family="Arial" font-size="14.00">Ausgabeformat</text>
</g>
<!-- 3&#45;&gt;3_3 -->
<g id="edge17" class="edge">
<title>3&#45;&gt;3_3</title>
<path fill="none" stroke="black" d="M442.24,-863.93C455.31,-860.94 468.72,-857.87 481.38,-855 499.81,-850.82 519.84,-846.31 538.18,-842.2"/>
<polygon fill="black" stroke="black" points="539.18,-845.57 548.18,-839.97 537.65,-838.74 539.18,-845.57"/>
</g>
<!-- 4_0 -->
<g id="node19" class="node">
<title>4_0</title>
<polygon fill="none" stroke="black" points="675.88,-792 523.88,-792 523.88,-756 681.88,-756 681.88,-786 675.88,-792"/>
<polyline fill="none" stroke="black" points="675.88,-792 675.88,-786 "/>
<polyline fill="none" stroke="black" points="681.88,-786 675.88,-786 "/>
<text text-anchor="middle" x="602.88" y="-770.3" font-family="Arial" font-size="14.00">Sprache &amp; Frameworks</text>
</g>
<!-- 4&#45;&gt;4_0 -->
<g id="edge18" class="edge">
<title>4&#45;&gt;4_0</title>
<path fill="none" stroke="black" d="M398.06,-711.03C421.1,-722.6 452.45,-737.23 481.38,-747 491.83,-750.53 502.94,-753.73 514.03,-756.59"/>
<polygon fill="black" stroke="black" points="513.2,-759.99 523.75,-759.02 514.9,-753.2 513.2,-759.99"/>
</g>
<!-- 4_1 -->
<g id="node20" class="node">
<title>4_1</title>
<polygon fill="none" stroke="black" points="673.88,-738 525.88,-738 525.88,-702 679.88,-702 679.88,-732 673.88,-738"/>
<polyline fill="none" stroke="black" points="673.88,-738 673.88,-732 "/>
<polyline fill="none" stroke="black" points="679.88,-732 673.88,-732 "/>
<text text-anchor="middle" x="602.88" y="-716.3" font-family="Arial" font-size="14.00">Modulstruktur im Repo</text>
</g>
<!-- 4&#45;&gt;4_1 -->
<g id="edge19" class="edge">
<title>4&#45;&gt;4_1</title>
<path fill="none" stroke="black" d="M412.04,-698.46C441.71,-701.83 480.62,-706.24 515.48,-710.2"/>
<polygon fill="black" stroke="black" points="515.34,-713.71 525.67,-711.35 516.13,-706.75 515.34,-713.71"/>
</g>
<!-- 4_2 -->
<g id="node21" class="node">
<title>4_2</title>
<polygon fill="none" stroke="black" points="663.88,-684 535.88,-684 535.88,-648 669.88,-648 669.88,-678 663.88,-684"/>
<polyline fill="none" stroke="black" points="663.88,-684 663.88,-678 "/>
<polyline fill="none" stroke="black" points="669.88,-678 663.88,-678 "/>
<text text-anchor="middle" x="602.88" y="-662.3" font-family="Arial" font-size="14.00">CLI / API / Service?</text>
</g>
<!-- 4&#45;&gt;4_2 -->
<g id="edge20" class="edge">
<title>4&#45;&gt;4_2</title>
<path fill="none" stroke="black" d="M412.04,-687.54C444.57,-683.85 488.2,-678.9 525.43,-674.67"/>
<polygon fill="black" stroke="black" points="526.21,-678.11 535.75,-673.5 525.42,-671.15 526.21,-678.11"/>
</g>
<!-- 4_3 -->
<g id="node22" class="node">
<title>4_3</title>
<polygon fill="none" stroke="black" points="653.88,-630 545.88,-630 545.88,-594 659.88,-594 659.88,-624 653.88,-630"/>
<polyline fill="none" stroke="black" points="653.88,-630 653.88,-624 "/>
<polyline fill="none" stroke="black" points="659.88,-624 653.88,-624 "/>
<text text-anchor="middle" x="602.88" y="-608.3" font-family="Arial" font-size="14.00">Beispiele / Tests</text>
</g>
<!-- 4&#45;&gt;4_3 -->
<g id="edge21" class="edge">
<title>4&#45;&gt;4_3</title>
<path fill="none" stroke="black" d="M398.06,-674.97C421.1,-663.4 452.45,-648.77 481.38,-639 498.77,-633.13 518.02,-628.16 535.92,-624.15"/>
<polygon fill="black" stroke="black" points="536.68,-627.57 545.71,-622.03 535.2,-620.73 536.68,-627.57"/>
</g>
<!-- 5_0 -->
<g id="node23" class="node">
<title>5_0</title>
<polygon fill="none" stroke="black" points="711.88,-576 487.88,-576 487.88,-540 717.88,-540 717.88,-570 711.88,-576"/>
<polyline fill="none" stroke="black" points="711.88,-576 711.88,-570 "/>
<polyline fill="none" stroke="black" points="717.88,-570 711.88,-570 "/>
<text text-anchor="middle" x="602.88" y="-554.3" font-family="Arial" font-size="14.00">LLM&#45;Reasoning (Chain&#45;of&#45;Thought)</text>
</g>
<!-- 5&#45;&gt;5_0 -->
<g id="edge22" class="edge">
<title>5&#45;&gt;5_0</title>
<path fill="none" stroke="black" d="M404.52,-535.61C425.06,-537.94 451.22,-540.91 477.71,-543.91"/>
<polygon fill="black" stroke="black" points="477.54,-547.42 487.87,-545.07 478.33,-540.46 477.54,-547.42"/>
</g>
<!-- 5_1 -->
<g id="node24" class="node">
<title>5_1</title>
<polygon fill="none" stroke="black" points="712.38,-522 487.38,-522 487.38,-486 718.38,-486 718.38,-516 712.38,-522"/>
<polyline fill="none" stroke="black" points="712.38,-522 712.38,-516 "/>
<polyline fill="none" stroke="black" points="718.38,-516 712.38,-516 "/>
<text text-anchor="middle" x="602.88" y="-500.3" font-family="Arial" font-size="14.00">Symbolische Reasoner (Prolog, Z3)</text>
</g>
<!-- 5&#45;&gt;5_1 -->
<g id="edge23" class="edge">
<title>5&#45;&gt;5_1</title>
<path fill="none" stroke="black" d="M404.52,-526.39C424.95,-524.07 450.92,-521.13 477.25,-518.14"/>
<polygon fill="black" stroke="black" points="477.81,-521.6 487.36,-516.99 477.02,-514.64 477.81,-521.6"/>
</g>
<!-- 5_2 -->
<g id="node25" class="node">
<title>5_2</title>
<polygon fill="none" stroke="black" points="651.38,-468 548.38,-468 548.38,-432 657.38,-432 657.38,-462 651.38,-468"/>
<polyline fill="none" stroke="black" points="651.38,-468 651.38,-462 "/>
<polyline fill="none" stroke="black" points="657.38,-462 651.38,-462 "/>
<text text-anchor="middle" x="602.88" y="-446.3" font-family="Arial" font-size="14.00">Hybrid&#45;Ansätze</text>
</g>
<!-- 5&#45;&gt;5_2 -->
<g id="edge24" class="edge">
<title>5&#45;&gt;5_2</title>
<path fill="none" stroke="black" d="M398.06,-512.97C421.1,-501.4 452.45,-486.77 481.38,-477 499.54,-470.87 519.72,-465.72 538.29,-461.63"/>
<polygon fill="black" stroke="black" points="539.08,-465.04 548.12,-459.52 537.61,-458.19 539.08,-465.04"/>
</g>
<!-- 6_0 -->
<g id="node26" class="node">
<title>6_0</title>
<polygon fill="none" stroke="black" points="665.88,-414 533.88,-414 533.88,-378 671.88,-378 671.88,-408 665.88,-414"/>
<polyline fill="none" stroke="black" points="665.88,-414 665.88,-408 "/>
<polyline fill="none" stroke="black" points="671.88,-408 665.88,-408 "/>
<text text-anchor="middle" x="602.88" y="-392.3" font-family="Arial" font-size="14.00">Typ&#45;System&#45;Checks</text>
</g>
<!-- 6&#45;&gt;6_0 -->
<g id="edge25" class="edge">
<title>6&#45;&gt;6_0</title>
<path fill="none" stroke="black" d="M442.24,-360.07C455.31,-363.06 468.72,-366.13 481.38,-369 495.01,-372.09 509.51,-375.36 523.55,-378.51"/>
<polygon fill="black" stroke="black" points="523.15,-382.01 533.68,-380.79 524.69,-375.18 523.15,-382.01"/>
</g>
<!-- 6_1 -->
<g id="node27" class="node">
<title>6_1</title>
<polygon fill="none" stroke="black" points="681.88,-360 517.88,-360 517.88,-324 687.88,-324 687.88,-354 681.88,-360"/>
<polyline fill="none" stroke="black" points="681.88,-360 681.88,-354 "/>
<polyline fill="none" stroke="black" points="687.88,-354 681.88,-354 "/>
<text text-anchor="middle" x="602.88" y="-338.3" font-family="Arial" font-size="14.00">Symbolisches Debugging</text>
</g>
<!-- 6&#45;&gt;6_1 -->
<g id="edge26" class="edge">
<title>6&#45;&gt;6_1</title>
<path fill="none" stroke="black" d="M445.45,-342C465.37,-342 486.84,-342 507.3,-342"/>
<polygon fill="black" stroke="black" points="507.58,-345.5 517.58,-342 507.58,-338.5 507.58,-345.5"/>
</g>
<!-- 6_2 -->
<g id="node28" class="node">
<title>6_2</title>
<polygon fill="none" stroke="black" points="695.88,-306 503.88,-306 503.88,-270 701.88,-270 701.88,-300 695.88,-306"/>
<polyline fill="none" stroke="black" points="695.88,-306 695.88,-300 "/>
<polyline fill="none" stroke="black" points="701.88,-300 695.88,-300 "/>
<text text-anchor="middle" x="602.88" y="-284.3" font-family="Arial" font-size="14.00">Constraint Reasoner als Crate</text>
</g>
<!-- 6&#45;&gt;6_2 -->
<g id="edge27" class="edge">
<title>6&#45;&gt;6_2</title>
<path fill="none" stroke="black" d="M442.24,-323.93C455.31,-320.94 468.72,-317.87 481.38,-315 491.02,-312.81 501.1,-310.54 511.15,-308.27"/>
<polygon fill="black" stroke="black" points="512.18,-311.63 521.17,-306.02 510.64,-304.8 512.18,-311.63"/>
</g>
<!-- 6_3 -->
<g id="node29" class="node">
<title>6_3</title>
<polygon fill="none" stroke="black" points="673.38,-252 526.38,-252 526.38,-216 679.38,-216 679.38,-246 673.38,-252"/>
<polyline fill="none" stroke="black" points="673.38,-252 673.38,-246 "/>
<polyline fill="none" stroke="black" points="679.38,-246 673.38,-246 "/>
<text text-anchor="middle" x="602.88" y="-230.3" font-family="Arial" font-size="14.00">Integration in Compiler</text>
</g>
<!-- 6&#45;&gt;6_3 -->
<g id="edge28" class="edge">
<title>6&#45;&gt;6_3</title>
<path fill="none" stroke="black" d="M384.89,-323.76C407.32,-305.24 444.6,-277.07 481.38,-261 492.35,-256.2 504.27,-252.22 516.21,-248.91"/>
<polygon fill="black" stroke="black" points="517.43,-252.21 526.21,-246.29 515.65,-245.44 517.43,-252.21"/>
</g>
<!-- 7_0 -->
<g id="node30" class="node">
<title>7_0</title>
<polygon fill="none" stroke="black" points="700.38,-198 499.38,-198 499.38,-162 706.38,-162 706.38,-192 700.38,-198"/>
<polyline fill="none" stroke="black" points="700.38,-198 700.38,-192 "/>
<polyline fill="none" stroke="black" points="706.38,-192 700.38,-192 "/>
<text text-anchor="middle" x="602.88" y="-176.3" font-family="Arial" font-size="14.00">Rechenaufwand / Skalierbarkeit</text>
</g>
<!-- 7&#45;&gt;7_0 -->
<g id="edge29" class="edge">
<title>7&#45;&gt;7_0</title>
<path fill="none" stroke="black" d="M422.44,-139.52C441.25,-143.85 462.19,-148.65 481.38,-153 491.02,-155.19 501.1,-157.46 511.15,-159.73"/>
<polygon fill="black" stroke="black" points="510.64,-163.2 521.17,-161.98 512.18,-156.37 510.64,-163.2"/>
</g>
<!-- 7_1 -->
<g id="node31" class="node">
<title>7_1</title>
<polygon fill="none" stroke="black" points="714.88,-144 484.88,-144 484.88,-108 720.88,-108 720.88,-138 714.88,-144"/>
<polyline fill="none" stroke="black" points="714.88,-144 714.88,-138 "/>
<polyline fill="none" stroke="black" points="720.88,-138 714.88,-138 "/>
<text text-anchor="middle" x="602.88" y="-122.3" font-family="Arial" font-size="14.00">Erweiterbarkeit auf andere Sprachen</text>
</g>
<!-- 7&#45;&gt;7_1 -->
<g id="edge30" class="edge">
<title>7&#45;&gt;7_1</title>
<path fill="none" stroke="black" d="M422.4,-126C438.31,-126 456.19,-126 474.33,-126"/>
<polygon fill="black" stroke="black" points="474.42,-129.5 484.42,-126 474.42,-122.5 474.42,-129.5"/>
</g>
<!-- 7_2 -->
<g id="node32" class="node">
<title>7_2</title>
<polygon fill="none" stroke="black" points="676.88,-90 522.88,-90 522.88,-54 682.88,-54 682.88,-84 676.88,-90"/>
<polyline fill="none" stroke="black" points="676.88,-90 676.88,-84 "/>
<polyline fill="none" stroke="black" points="682.88,-84 676.88,-84 "/>
<text text-anchor="middle" x="602.88" y="-68.3" font-family="Arial" font-size="14.00">Kombination mit LLMs?</text>
</g>
<!-- 7&#45;&gt;7_2 -->
<g id="edge31" class="edge">
<title>7&#45;&gt;7_2</title>
<path fill="none" stroke="black" d="M422.44,-112.48C441.25,-108.15 462.19,-103.35 481.38,-99 491.62,-96.68 502.36,-94.25 513.03,-91.85"/>
<polygon fill="black" stroke="black" points="513.8,-95.27 522.79,-89.66 512.26,-88.44 513.8,-95.27"/>
</g>
<!-- 7_3 -->
<g id="node33" class="node">
<title>7_3</title>
<polygon fill="none" stroke="black" points="671.88,-36 527.88,-36 527.88,0 677.88,0 677.88,-30 671.88,-36"/>
<polyline fill="none" stroke="black" points="671.88,-36 671.88,-30 "/>
<polyline fill="none" stroke="black" points="677.88,-30 671.88,-30 "/>
<text text-anchor="middle" x="602.88" y="-14.3" font-family="Arial" font-size="14.00">Praktische Use&#45;Cases</text>
</g>
<!-- 7&#45;&gt;7_3 -->
<g id="edge32" class="edge">
<title>7&#45;&gt;7_3</title>
<path fill="none" stroke="black" d="M384.89,-107.76C407.32,-89.24 444.6,-61.07 481.38,-45 492.85,-39.99 505.36,-35.86 517.83,-32.47"/>
<polygon fill="black" stroke="black" points="518.99,-35.78 527.81,-29.9 517.25,-29 518.99,-35.78"/>
</g>
</g>
</svg>
